<?xml version="1.0" encoding="UTF-8"?><svg id="Ebene_1" xmlns="http://www.w3.org/2000/svg" viewBox="0 0 285.65 115"><defs><style>.cls-1{fill:#ff5f1f;stroke-width:0px;}</style></defs><polygon class="cls-1" points="33.12 79.49 37.72 79.49 37.72 78.39 33.12 78.39 33.12 74.99 38.05 74.99 38.05 73.89 31.89 73.89 31.89 84.08 38.11 84.08 38.11 82.99 33.12 82.99 33.12 79.49"/><polygon class="cls-1" points="44.73 82.34 44.61 82.34 41.15 73.89 39.67 73.89 39.67 84.08 40.84 84.08 40.84 76.34 40.93 76.34 44.1 84.08 45.2 84.08 48.41 76.34 48.51 76.34 48.51 84.08 49.72 84.08 49.72 73.89 48.19 73.89 44.73 82.34"/><path class="cls-1" d="m57.57,79.16c-.31-.2-.63-.31-.94-.33v-.1c.29-.08.56-.21.81-.37.25-.17.45-.39.61-.68.15-.29.23-.65.23-1.08,0-.5-.11-.95-.34-1.36s-.57-.74-1.03-.98c-.46-.24-1.04-.37-1.75-.37h-3.57v10.19h3.68c.81,0,1.46-.12,1.96-.36.5-.24.86-.56,1.1-.97.23-.41.35-.87.35-1.38,0-.54-.11-.99-.32-1.36s-.48-.65-.79-.85Zm-4.74-4.17h2.34c.67,0,1.17.16,1.48.47s.46.7.46,1.14c0,.36-.09.67-.26.93-.18.27-.41.47-.71.62-.3.15-.64.22-1,.22h-2.3v-3.39Zm4.17,7.53c-.34.31-.91.47-1.72.47h-2.45v-3.54h2.52c.44,0,.82.09,1.15.27s.57.41.75.7.26.61.26.96c0,.45-.17.83-.51,1.14Z"/><polygon class="cls-1" points="61.34 79.49 65.93 79.49 65.93 78.39 61.34 78.39 61.34 74.99 66.26 74.99 66.26 73.89 60.11 73.89 60.11 84.08 66.33 84.08 66.33 82.99 61.34 82.99 61.34 79.49"/><path class="cls-1" d="m73.71,74.5c-.7-.41-1.55-.61-2.54-.61h-3.28v10.19h3.14c1.03,0,1.91-.21,2.64-.62s1.27-1,1.65-1.76c.38-.76.57-1.68.57-2.74s-.19-1.96-.56-2.72c-.37-.76-.91-1.34-1.62-1.75Zm.58,6.61c-.27.6-.69,1.06-1.24,1.39s-1.25.49-2.1.49h-1.83v-8h1.97c.8,0,1.46.16,2,.48.54.32.94.78,1.21,1.37.27.6.4,1.3.4,2.12s-.14,1.54-.41,2.15Z"/><path class="cls-1" d="m83.19,74.5c-.7-.41-1.55-.61-2.54-.61h-3.28v10.19h3.14c1.03,0,1.91-.21,2.64-.62s1.27-1,1.65-1.76c.38-.76.57-1.68.57-2.74s-.19-1.96-.56-2.72c-.37-.76-.91-1.34-1.62-1.75Zm.58,6.61c-.27.6-.69,1.06-1.24,1.39s-1.25.49-2.1.49h-1.83v-8h1.97c.8,0,1.46.16,2,.48.54.32.94.78,1.21,1.37.27.6.4,1.3.4,2.12s-.14,1.54-.41,2.15Z"/><polygon class="cls-1" points="88.07 79.49 92.67 79.49 92.67 78.39 88.07 78.39 88.07 74.99 93 74.99 93 73.89 86.84 73.89 86.84 84.08 93.06 84.08 93.06 82.99 88.07 82.99 88.07 79.49"/><path class="cls-1" d="m100.45,74.5c-.7-.41-1.55-.61-2.54-.61h-3.28v10.19h3.14c1.03,0,1.91-.21,2.64-.62s1.27-1,1.65-1.76c.38-.76.57-1.68.57-2.74s-.19-1.96-.56-2.72c-.37-.76-.91-1.34-1.62-1.75Zm.58,6.61c-.27.6-.69,1.06-1.24,1.39s-1.25.49-2.1.49h-1.83v-8h1.97c.8,0,1.46.16,2,.48.54.32.94.78,1.21,1.37.27.6.4,1.3.4,2.12s-.14,1.54-.41,2.15Z"/><path class="cls-1" d="m122.02,79.31c-.3-.21-.62-.38-.94-.5s-.62-.22-.89-.29l-1.03-.29c-.25-.07-.53-.17-.84-.29s-.57-.29-.8-.52c-.22-.22-.33-.51-.33-.87,0-.33.09-.62.28-.88s.45-.46.79-.6.73-.22,1.18-.22c.62,0,1.14.14,1.56.42s.66.67.72,1.17h1.2c-.02-.51-.18-.97-.48-1.37-.3-.4-.71-.72-1.22-.96-.51-.23-1.09-.35-1.75-.35s-1.23.12-1.76.36-.94.57-1.25.99c-.31.43-.46.92-.46,1.49,0,.69.23,1.25.69,1.67.46.43,1.09.75,1.89.98l1.24.36c.36.1.69.22,1,.35s.56.3.75.51.29.48.29.82c0,.37-.11.7-.33.98s-.52.49-.89.65-.8.23-1.27.23c-.41,0-.78-.06-1.13-.18s-.64-.31-.86-.56-.36-.57-.39-.95h-1.27c.04.56.21,1.04.52,1.47.3.42.72.75,1.25.98.53.23,1.16.35,1.89.35.78,0,1.45-.13,2-.39.55-.26.96-.62,1.25-1.06.29-.44.43-.94.43-1.49,0-.48-.1-.88-.29-1.21-.2-.33-.45-.59-.75-.8Z"/><path class="cls-1" d="m130.93,74.39c-.67-.42-1.45-.64-2.32-.64s-1.64.21-2.32.64-1.21,1.03-1.6,1.81-.58,1.71-.58,2.79.19,2,.58,2.78c.39.78.92,1.38,1.6,1.81s1.45.64,2.32.64,1.64-.21,2.32-.64,1.21-1.03,1.59-1.81c.39-.78.58-1.71.58-2.78s-.19-2-.58-2.79-.92-1.39-1.59-1.81Zm.54,6.83c-.29.61-.69,1.07-1.19,1.38-.5.31-1.06.47-1.67.47s-1.17-.16-1.67-.47c-.5-.31-.9-.77-1.2-1.38s-.44-1.35-.44-2.23.15-1.63.44-2.24c.3-.61.69-1.07,1.2-1.38.5-.31,1.06-.47,1.67-.47s1.17.16,1.67.47c.5.31.9.77,1.19,1.38.29.61.44,1.35.44,2.24s-.15,1.62-.44,2.23Z"/><polygon class="cls-1" points="134.58 84.08 135.81 84.08 135.81 79.64 140.23 79.64 140.23 78.54 135.81 78.54 135.81 74.99 140.69 74.99 140.69 73.89 134.58 73.89 134.58 84.08"/><polygon class="cls-1" points="141.65 74.99 144.86 74.99 144.86 84.08 146.09 84.08 146.09 74.99 149.29 74.99 149.29 73.89 141.65 73.89 141.65 74.99"/><polygon class="cls-1" points="161.15 73.89 159.03 82.19 158.93 82.19 156.77 73.89 155.37 73.89 153.2 82.19 153.1 82.19 150.97 73.89 149.72 73.89 152.5 84.08 153.78 84.08 156.03 75.97 156.11 75.97 158.35 84.08 159.62 84.08 162.41 73.89 161.15 73.89"/><path class="cls-1" d="m165.49,73.89l-3.75,10.19h1.3l1.02-2.88h4.12l1.03,2.88h1.29l-3.73-10.19h-1.27Zm-1.04,6.21l1.63-4.59h.08l1.63,4.59h-3.34Z"/><path class="cls-1" d="m176.92,79.71c.51-.26.88-.63,1.13-1.09.24-.46.37-1,.37-1.59s-.12-1.14-.37-1.61c-.25-.47-.62-.84-1.13-1.12-.51-.27-1.16-.41-1.96-.41h-3.45v10.19h1.23v-3.98h2.23c.09,0,.17-.02.26-.02l2.15,4h1.44l-2.31-4.23c.14-.05.3-.08.42-.14Zm-4.18-4.72h2.17c.55,0,.99.08,1.33.25.33.17.58.41.73.71.15.31.23.66.23,1.07s-.08.76-.23,1.05c-.15.29-.39.52-.72.68-.33.16-.77.24-1.32.24h-2.19v-4.01Z"/><polygon class="cls-1" points="181.11 79.49 185.7 79.49 185.7 78.39 181.11 78.39 181.11 74.99 186.03 74.99 186.03 73.89 179.88 73.89 179.88 84.08 186.1 84.08 186.1 82.99 181.11 82.99 181.11 79.49"/><polygon class="cls-1" points="199.16 74.99 202.37 74.99 202.37 84.08 203.6 84.08 203.6 74.99 206.8 74.99 206.8 73.89 199.16 73.89 199.16 74.99"/><polygon class="cls-1" points="209.34 79.49 213.94 79.49 213.94 78.39 209.34 78.39 209.34 74.99 214.27 74.99 214.27 73.89 208.11 73.89 208.11 84.08 214.33 84.08 214.33 82.99 209.34 82.99 209.34 79.49"/><path class="cls-1" d="m221.76,79.31c-.3-.21-.62-.38-.94-.5-.33-.12-.62-.22-.88-.29l-1.03-.29c-.25-.07-.53-.17-.84-.29s-.57-.29-.8-.52c-.22-.22-.33-.51-.33-.87,0-.33.09-.62.28-.88.19-.25.45-.46.79-.6.34-.15.73-.22,1.18-.22.62,0,1.14.14,1.56.42.42.28.66.67.72,1.17h1.2c-.02-.51-.18-.97-.48-1.37-.3-.4-.71-.72-1.22-.96-.51-.23-1.09-.35-1.75-.35s-1.23.12-1.76.36-.94.57-1.25.99c-.31.43-.46.92-.46,1.49,0,.69.23,1.25.69,1.67.46.43,1.09.75,1.89.98l1.24.36c.36.1.69.22,1,.35s.56.3.75.51.29.48.29.82c0,.37-.11.7-.33.98s-.52.49-.89.65-.8.23-1.27.23c-.41,0-.78-.06-1.13-.18-.35-.12-.64-.31-.87-.56s-.36-.57-.39-.95h-1.27c.04.56.21,1.04.52,1.47.3.42.72.75,1.25.98.53.23,1.16.35,1.89.35.78,0,1.45-.13,2-.39.55-.26.96-.62,1.25-1.06.29-.44.43-.94.43-1.49,0-.48-.1-.88-.29-1.21-.2-.33-.45-.59-.75-.8Z"/><polygon class="cls-1" points="223.68 74.99 226.89 74.99 226.89 84.08 228.12 84.08 228.12 74.99 231.32 74.99 231.32 73.89 223.68 73.89 223.68 74.99"/><rect class="cls-1" x="232.63" y="73.89" width="1.23" height="10.19"/><polygon class="cls-1" points="242.6 81.91 242.51 81.91 236.93 73.89 235.74 73.89 235.74 84.08 236.97 84.08 236.97 76.08 237.08 76.08 242.61 84.08 243.83 84.08 243.83 73.89 242.6 73.89 242.6 81.91"/><path class="cls-1" d="m250.12,78.99v1.09h2.67c-.01.59-.13,1.11-.37,1.54-.25.46-.6.81-1.04,1.06-.44.25-.96.38-1.54.38-.63,0-1.2-.16-1.7-.47-.51-.31-.91-.77-1.2-1.38-.3-.61-.44-1.35-.44-2.23s.15-1.63.44-2.24c.29-.61.69-1.07,1.18-1.38.5-.31,1.04-.47,1.64-.47.37,0,.71.05,1.01.15.3.1.58.25.83.43.25.19.46.42.63.68.18.27.32.57.43.91h1.27c-.1-.49-.27-.94-.51-1.35-.24-.41-.55-.76-.91-1.05-.37-.3-.78-.52-1.24-.68s-.97-.24-1.5-.24c-.87,0-1.64.21-2.31.64s-1.2,1.03-1.58,1.81c-.38.78-.57,1.71-.57,2.79s.19,2,.57,2.78c.38.78.91,1.38,1.59,1.81.68.42,1.47.64,2.38.64.81,0,1.52-.17,2.15-.51.63-.34,1.12-.82,1.47-1.44.36-.62.53-1.34.53-2.18v-1.09h-3.88Z"/><path class="cls-1" d="m220.42,45.16h-28.07c1.48-3.41,4.88-5.9,8.82-5.9h19.24v5.9Z"/><path class="cls-1" d="m192.71,53.53c-.74-1.36-1.16-2.92-1.16-4.56,0-.46.03-.91.1-1.35h8.04c-.33.35-.53.83-.53,1.35,0,1.1.9,2,2,2h11.75c2.52,0,4.82.97,6.53,2.56h-26.74Z"/><path class="cls-1" d="m191.42,64.37h30.35c-1.47,3.44-4.88,5.85-8.84,5.85h-21.51v-5.85Z"/><path class="cls-1" d="m222.54,60.58c0,.45-.03.89-.09,1.32h-8.01c.31-.35.48-.8.48-1.3,0-1.12-.9-2.02-2-2.02h-11.75c-2.53,0-4.84-.99-6.55-2.59h26.76c.74,1.36,1.17,2.93,1.17,4.59"/><rect class="cls-1" x="135.62" y="64.37" width="7.61" height="5.86"/><rect class="cls-1" x="135.62" y="56" width="7.61" height="5.91"/><path class="cls-1" d="m136.4,47.62h9.36c-1.51.88-2.52,2.52-2.52,4.39v1.52h-7.62v-1.52c0-1.54.28-3.02.78-4.39"/><path class="cls-1" d="m154.75,39.25v5.91h-17.12c2.26-3.52,6.2-5.91,10.68-5.91h6.44Z"/><rect class="cls-1" x="67.02" y="39.25" width="7.61" height="5.91"/><rect class="cls-1" x="67.02" y="47.62" width="7.61" height="5.91"/><rect class="cls-1" x="67.02" y="56" width="7.61" height="5.91"/><rect class="cls-1" x="67.02" y="64.37" width="7.62" height="5.86"/><path class="cls-1" d="m90.83,61.91h-9.37c-.51-1.37-.79-2.85-.79-4.4v-1.51h7.61v1.51c0,1.88,1.03,3.52,2.54,4.4"/><rect class="cls-1" x="80.67" y="47.62" width="7.62" height="5.91"/><rect class="cls-1" x="80.67" y="30.93" width="7.62" height="5.85"/><rect class="cls-1" x="80.67" y="39.25" width="20.53" height="5.91"/><path class="cls-1" d="m82.7,64.37h18.5v5.83h-7.83c-4.48,0-8.41-2.32-10.67-5.83"/><rect class="cls-1" x="226.06" y="64.37" width="7.62" height="5.86"/><rect class="cls-1" x="226.06" y="56" width="7.62" height="5.91"/><rect class="cls-1" x="226.06" y="47.62" width="7.62" height="5.91"/><rect class="cls-1" x="226.06" y="30.93" width="7.62" height="5.85"/><path class="cls-1" d="m252.8,45.16h-26.74v-5.91h16.06c4.48,0,8.43,2.39,10.68,5.91"/><path class="cls-1" d="m254.82,52.01v1.52h-7.62v-1.52c0-1.87-1.01-3.51-2.52-4.39h9.36c.5,1.37.78,2.85.78,4.39"/><rect class="cls-1" x="247.2" y="56" width="7.62" height="5.91"/><rect class="cls-1" x="247.2" y="64.37" width="7.62" height="5.86"/><path class="cls-1" d="m130.85,39.25v5.91h-24.79c2.6-3.61,6.7-5.91,11.49-5.91h13.3Z"/><path class="cls-1" d="m110.8,53.53h-7.65c.14-2.14.66-4.13,1.48-5.91h9.86c-2.2,1.13-3.39,3.49-3.69,5.91"/><path class="cls-1" d="m114.53,61.91h-9.9c-.82-1.77-1.34-3.77-1.49-5.91h7.66c.3,2.43,1.51,4.79,3.73,5.91"/><path class="cls-1" d="m130.85,64.37v5.83h-13.3c-4.78,0-8.87-2.24-11.48-5.83h24.77Z"/><rect class="cls-1" x="158.72" y="39.24" width="7.62" height="5.91"/><rect class="cls-1" x="158.72" y="47.62" width="7.62" height="5.91"/><path class="cls-1" d="m168.36,61.91h-8.89c-.48-1.39-.75-2.88-.75-4.43v-1.48h7.62v1.48c0,1.76.78,3.35,2.02,4.43"/><path class="cls-1" d="m160.62,64.37h24.65c-2.36,3.95-6.67,6.59-11.59,6.59h-1.47c-4.92,0-9.23-2.65-11.59-6.59"/><rect class="cls-1" x="179.54" y="39.25" width="7.62" height="5.91"/><rect class="cls-1" x="179.54" y="47.62" width="7.62" height="5.91"/><path class="cls-1" d="m179.54,56h7.61v1.48c0,1.55-.26,3.04-.75,4.42h-8.88c1.24-1.08,2.02-2.66,2.02-4.42v-1.48Z"/><rect class="cls-1" x="30.88" y="30.95" width="7.61" height="5.83"/><rect class="cls-1" x="30.88" y="39.25" width="7.61" height="5.91"/><rect class="cls-1" x="30.88" y="47.62" width="7.61" height="5.91"/><rect class="cls-1" x="30.88" y="56" width="7.61" height="5.91"/><path class="cls-1" d="m30.88,64.37h27.65c-2.84,3.55-7.2,5.83-12.08,5.83h-15.57v-5.83Z"/><path class="cls-1" d="m54.18,56h7.66c-.17,2.12-.77,4.12-1.71,5.91h-10.5c2.37-1.06,4.12-3.26,4.55-5.91"/><path class="cls-1" d="m58.55,45.16h-17.22v-5.91h5.12c4.9,0,9.26,2.34,12.1,5.91"/><path class="cls-1" d="m61.85,53.53h-7.66c-.41-2.64-2.15-4.84-4.5-5.91h10.46c.94,1.8,1.53,3.79,1.7,5.91"/></svg>